<mxfile host="65bd71144e">
    <diagram id="ffboHtNIQQNh704SeMcM" name="Page-1">
        <mxGraphModel dx="466" dy="445" grid="1" gridSize="10" guides="1" tooltips="1" connect="1" arrows="1" fold="1" page="1" pageScale="1" pageWidth="827" pageHeight="1169" background="none" math="0" shadow="0">
            <root>
                <mxCell id="0"/>
                <mxCell id="1" parent="0"/>
                <mxCell id="2" value="Titus Diceman&amp;nbsp;&lt;br&gt;TEJ3M&lt;br&gt;Unit-4-19&lt;br&gt;&lt;br&gt;2 bit Full adder" style="text;html=1;align=left;verticalAlign=middle;resizable=0;points=[];autosize=1;strokeColor=none;fillColor=none;" parent="1" vertex="1">
                    <mxGeometry x="50" y="175" width="100" height="90" as="geometry"/>
                </mxCell>
                <mxCell id="153" value="" style="edgeStyle=none;orthogonalLoop=1;jettySize=auto;html=1;endArrow=none;endFill=0;" edge="1" parent="1">
                    <mxGeometry width="100" relative="1" as="geometry">
                        <mxPoint x="175" y="264.44" as="sourcePoint"/>
                        <mxPoint x="275" y="264.44" as="targetPoint"/>
                        <Array as="points"/>
                    </mxGeometry>
                </mxCell>
                <mxCell id="154" value="" style="edgeStyle=none;orthogonalLoop=1;jettySize=auto;html=1;endArrow=none;endFill=0;" edge="1" parent="1">
                    <mxGeometry width="100" relative="1" as="geometry">
                        <mxPoint x="320" y="264.44" as="sourcePoint"/>
                        <mxPoint x="420" y="264.44" as="targetPoint"/>
                        <Array as="points"/>
                    </mxGeometry>
                </mxCell>
                <mxCell id="156" value="" style="edgeStyle=none;orthogonalLoop=1;jettySize=auto;html=1;endArrow=none;endFill=0;entryX=0.25;entryY=0;entryDx=0;entryDy=0;" edge="1" parent="1" target="149">
                    <mxGeometry width="100" relative="1" as="geometry">
                        <mxPoint x="270" y="170" as="sourcePoint"/>
                        <mxPoint x="310" y="190" as="targetPoint"/>
                        <Array as="points"/>
                    </mxGeometry>
                </mxCell>
                <mxCell id="157" value="" style="edgeStyle=none;orthogonalLoop=1;jettySize=auto;html=1;endArrow=none;endFill=0;" edge="1" parent="1">
                    <mxGeometry width="100" relative="1" as="geometry">
                        <mxPoint x="292.73" y="360.54" as="sourcePoint"/>
                        <mxPoint x="292.73" y="310.00000000000006" as="targetPoint"/>
                        <Array as="points"/>
                    </mxGeometry>
                </mxCell>
                <mxCell id="158" value="" style="edgeStyle=none;orthogonalLoop=1;jettySize=auto;html=1;endArrow=none;endFill=0;" edge="1" parent="1">
                    <mxGeometry width="100" relative="1" as="geometry">
                        <mxPoint x="440" y="360" as="sourcePoint"/>
                        <mxPoint x="440" y="310" as="targetPoint"/>
                        <Array as="points"/>
                    </mxGeometry>
                </mxCell>
                <mxCell id="149" value="Full&amp;nbsp; Adder" style="whiteSpace=wrap;html=1;" vertex="1" parent="1">
                    <mxGeometry x="248" y="220" width="90" height="90" as="geometry"/>
                </mxCell>
                <mxCell id="150" value="Half Adder" style="whiteSpace=wrap;html=1;" vertex="1" parent="1">
                    <mxGeometry x="390" y="220" width="90" height="90" as="geometry"/>
                </mxCell>
                <mxCell id="169" value="" style="edgeStyle=none;orthogonalLoop=1;jettySize=auto;html=1;endArrow=none;endFill=0;entryX=0.797;entryY=-0.013;entryDx=0;entryDy=0;entryPerimeter=0;" edge="1" parent="1" target="149">
                    <mxGeometry width="100" relative="1" as="geometry">
                        <mxPoint x="320" y="170" as="sourcePoint"/>
                        <mxPoint x="280.5" y="230" as="targetPoint"/>
                        <Array as="points"/>
                    </mxGeometry>
                </mxCell>
                <mxCell id="170" value="" style="edgeStyle=none;orthogonalLoop=1;jettySize=auto;html=1;endArrow=none;endFill=0;entryX=0.25;entryY=0;entryDx=0;entryDy=0;" edge="1" parent="1">
                    <mxGeometry width="100" relative="1" as="geometry">
                        <mxPoint x="413" y="170" as="sourcePoint"/>
                        <mxPoint x="413.5" y="220" as="targetPoint"/>
                        <Array as="points"/>
                    </mxGeometry>
                </mxCell>
                <mxCell id="171" value="" style="edgeStyle=none;orthogonalLoop=1;jettySize=auto;html=1;endArrow=none;endFill=0;entryX=0.25;entryY=0;entryDx=0;entryDy=0;" edge="1" parent="1">
                    <mxGeometry width="100" relative="1" as="geometry">
                        <mxPoint x="460" y="170" as="sourcePoint"/>
                        <mxPoint x="460.5" y="220" as="targetPoint"/>
                        <Array as="points"/>
                    </mxGeometry>
                </mxCell>
                <mxCell id="172" value="C&lt;span style=&quot;font-size: 10px;&quot;&gt;o&lt;/span&gt;&lt;span style=&quot;font-size: 8.33333px;&quot;&gt;ut&lt;/span&gt;" style="text;html=1;align=center;verticalAlign=middle;resizable=0;points=[];autosize=1;strokeColor=none;fillColor=none;" vertex="1" parent="1">
                    <mxGeometry x="130" y="245" width="40" height="30" as="geometry"/>
                </mxCell>
                <mxCell id="173" value="S&lt;sub&gt;1&lt;/sub&gt;" style="text;html=1;align=center;verticalAlign=middle;resizable=0;points=[];autosize=1;strokeColor=none;fillColor=none;" vertex="1" parent="1">
                    <mxGeometry x="270" y="355" width="40" height="30" as="geometry"/>
                </mxCell>
                <mxCell id="174" value="&lt;span style=&quot;font-size: 10px;&quot;&gt;S&lt;sub&gt;0&lt;/sub&gt;&lt;/span&gt;" style="text;html=1;align=center;verticalAlign=middle;resizable=0;points=[];autosize=1;strokeColor=none;fillColor=none;" vertex="1" parent="1">
                    <mxGeometry x="424" y="355" width="30" height="30" as="geometry"/>
                </mxCell>
                <mxCell id="175" value="B&lt;sub&gt;1&lt;/sub&gt;" style="text;html=1;align=center;verticalAlign=middle;resizable=0;points=[];autosize=1;strokeColor=none;fillColor=none;" vertex="1" parent="1">
                    <mxGeometry x="250" y="145" width="40" height="30" as="geometry"/>
                </mxCell>
                <mxCell id="176" value="A&lt;sub&gt;1&lt;/sub&gt;" style="text;html=1;align=center;verticalAlign=middle;resizable=0;points=[];autosize=1;strokeColor=none;fillColor=none;" vertex="1" parent="1">
                    <mxGeometry x="300" y="145" width="40" height="30" as="geometry"/>
                </mxCell>
                <mxCell id="177" value="B&lt;sub&gt;0&lt;/sub&gt;" style="text;html=1;align=center;verticalAlign=middle;resizable=0;points=[];autosize=1;strokeColor=none;fillColor=none;" vertex="1" parent="1">
                    <mxGeometry x="395" y="145" width="40" height="30" as="geometry"/>
                </mxCell>
                <mxCell id="178" value="A&lt;sub&gt;0&lt;/sub&gt;" style="text;html=1;align=center;verticalAlign=middle;resizable=0;points=[];autosize=1;strokeColor=none;fillColor=none;" vertex="1" parent="1">
                    <mxGeometry x="440" y="145" width="40" height="30" as="geometry"/>
                </mxCell>
                <mxCell id="179" value="C&lt;sub&gt;in&lt;/sub&gt;" style="text;html=1;align=center;verticalAlign=middle;resizable=0;points=[];autosize=1;strokeColor=none;fillColor=none;" vertex="1" parent="1">
                    <mxGeometry x="340" y="235" width="40" height="30" as="geometry"/>
                </mxCell>
            </root>
        </mxGraphModel>
    </diagram>
</mxfile>